<?xml version="1.0" standalone="no"?>
<!DOCTYPE svg PUBLIC "-//W3C//DTD SVG 20010904//EN"
 "http://www.w3.org/TR/2001/REC-SVG-20010904/DTD/svg10.dtd">
<svg version="1.0" xmlns="http://www.w3.org/2000/svg"
 width="512.000000pt" height="512.000000pt" viewBox="0 0 512.000000 512.000000"
 preserveAspectRatio="xMidYMid meet">
<metadata>
Created by potrace 1.11, written by Peter Selinger 2001-2013
</metadata>
<g transform="translate(0.000000,512.000000) scale(0.100000,-0.100000)"
fill="#000000" stroke="none">
<path d="M4400 5110 c-64 -14 -146 -48 -210 -88 -56 -35 -94 -73 -425 -418
-104 -109 -238 -248 -296 -308 -59 -61 -146 -153 -195 -203 l-89 -93 -495 164
c-272 91 -508 170 -525 176 -16 6 -37 13 -45 15 -18 4 -1263 416 -1271 421 -3
1 -162 -154 -353 -345 l-348 -348 124 -75 c205 -125 1429 -879 1483 -913 28
-17 116 -72 197 -121 81 -49 147 -94 148 -100 0 -6 -10 -19 -22 -31 -13 -11
-72 -72 -133 -135 -60 -63 -195 -204 -300 -312 -104 -109 -224 -234 -266 -279
l-76 -80 -219 36 c-120 20 -236 39 -258 43 -21 3 -46 7 -55 9 -9 1 -35 6 -59
10 l-44 7 -334 -335 -334 -334 78 -28 c42 -14 120 -42 172 -60 145 -51 486
-170 665 -232 88 -31 165 -61 171 -67 6 -6 25 -51 42 -101 17 -49 56 -162 88
-250 31 -88 60 -171 64 -185 5 -14 41 -117 80 -230 40 -113 81 -231 92 -263
l20 -59 334 334 334 333 -6 40 c-11 77 -13 90 -19 125 -3 19 -10 58 -15 85 -5
28 -21 126 -36 219 l-27 168 74 71 c88 83 239 228 529 507 199 192 238 227
244 218 1 -1 60 -97 131 -213 70 -115 148 -240 172 -277 23 -37 43 -72 43 -78
0 -5 5 -10 10 -10 6 0 10 -6 10 -14 0 -7 9 -24 19 -37 10 -14 27 -38 37 -56
11 -17 35 -56 54 -88 19 -31 40 -64 45 -74 6 -9 160 -261 344 -559 l335 -543
343 343 c189 188 343 349 343 357 0 13 -633 1937 -650 1976 -5 11 -34 97 -64
190 l-55 170 89 85 c48 47 177 171 286 275 108 105 251 242 317 305 231 222
294 285 323 330 121 184 135 409 38 609 -65 134 -218 262 -364 306 -66 19
-228 28 -290 15z m240 -317 c57 -25 127 -95 152 -151 39 -87 32 -204 -17 -282
-19 -30 -171 -180 -495 -490 -36 -34 -150 -144 -254 -244 -103 -99 -229 -220
-280 -268 l-91 -87 46 -138 c26 -76 146 -439 268 -808 122 -369 276 -835 343
-1037 l122 -366 -146 -146 -146 -147 -80 128 c-43 70 -277 450 -519 843 -242
393 -477 775 -523 848 l-82 134 -42 -40 c-22 -22 -66 -64 -97 -93 -126 -120
-297 -285 -495 -475 -115 -111 -247 -238 -294 -282 -47 -45 -132 -126 -190
-182 l-104 -101 33 -202 c18 -111 35 -215 38 -232 2 -16 9 -57 15 -90 5 -33
12 -72 14 -86 4 -21 -12 -42 -103 -132 -59 -59 -110 -107 -113 -107 -4 0 -14
21 -23 47 -8 27 -43 127 -77 223 -82 232 -138 395 -157 451 l-15 45 -181 63
c-100 34 -191 66 -202 71 -11 5 -102 37 -202 72 -101 35 -183 65 -183 68 0 6
176 186 203 208 11 10 81 1 314 -38 165 -27 309 -50 319 -50 11 0 52 35 94 79
41 44 156 164 255 266 99 103 205 213 235 245 30 32 141 147 246 257 362 376
354 367 341 379 -7 6 -75 49 -152 96 -161 98 -886 545 -1115 687 -85 53 -164
101 -175 107 -17 9 -229 140 -443 273 l-53 33 147 146 147 146 61 -21 c34 -11
241 -80 461 -152 220 -73 407 -135 415 -138 8 -4 17 -7 20 -7 14 -3 278 -89
295 -96 11 -5 262 -89 558 -186 l538 -178 91 94 c50 52 175 183 278 290 103
107 207 215 230 240 23 25 137 143 253 263 249 258 277 277 407 273 40 -2 82
-10 110 -23z"/>
</g>
</svg>
